#N canvas 627 239 933 559 12;
#N canvas 0 50 450 250 (subpatch) 0;
#X text 0 0 plugdatainfo <?xml version="1.0" encoding="UTF-8"?> <plugdatainfo/>;
#X coords 0 1 100 -1 1 1 1;
#X restore 0 0 graph;
#X obj 39 48 netreceive -u -b 50000;
#X obj 39 77 oscparse;
#X listbox 128 121 30 0 0 0 - - - 0;
#X obj 39 121 list trim;
#X obj 39 150 route sonar;
#X obj 39 179 list split 2;
#X floatatom 39 400 5 0 0 0 - - - 12;
#X obj 39 214 route 1 2 3 4;
#X floatatom 61 350 5 0 0 0 - - - 12;
#X floatatom 83 304 5 0 0 0 - - - 12;
#X floatatom 105 256 5 0 0 0 - - - 12;
#N canvas 0 50 450 250 (subpatch) 0;
#X array sonar1 100 float 0;
#X coords 0 1 99 0 200 140 1;
#X restore 372 43 graph;
#N canvas 189 711 450 300 to_sonar1 1;
#N canvas 0 50 450 250 (subpatch) 0;
#X text 0 0 plugdatainfo <?xml version="1.0" encoding="UTF-8"?> <plugdatainfo/>;
#X coords 0 1 100 -1 1 1 1;
#X restore 0 0 graph;
#X obj 35 22 inlet;
#X obj 215 18 v i\$0;
#X obj 35 86 expr i\$0=i\$0+1 \; if (i\$0>size("sonar1") \, i\$0=0 \, i\$0=i\$0) \; sonar1[i\$0]=$f1;
#X connect 1 0 3 0;
#X restore 36 449 pd to_sonar1;
#X obj 14 77 bng 20 250 50 0 empty empty empty 0 -10 0 12 #fcfcfc #000000 #000000;
#X obj 67 424 abs_toarray sonar1;
#N canvas 0 50 450 250 (subpatch) 0;
#X array sonar3 100 float 0;
#X coords 0 1 99 0 200 140 1 0 0;
#X restore 370 204 graph;
#N canvas 0 50 450 250 (subpatch) 0;
#X array sonar2 100 float 0;
#X coords 0 1 99 0 200 140 1 0 0;
#X restore 583 44 graph;
#N canvas 0 50 450 250 (subpatch) 0;
#X array sonar4 100 float 0;
#X coords 0 1 99 0 200 140 1 0 0;
#X restore 583 206 graph;
#X obj 87 374 abs_toarray sonar2;
#X obj 106 327 abs_toarray sonar3;
#X obj 129 280 abs_toarray sonar4;
#X obj 39 425 bng 20 250 50 0 empty empty empty 0 -10 0 12 #fcfcfc #000000 #000000;
#X obj 83 328 bng 20 250 50 0 empty empty empty 0 -10 0 12 #fcfcfc #000000 #000000;
#X obj 105 280 bng 20 250 50 0 empty empty empty 0 -10 0 12 #fcfcfc #000000 #000000;
#X obj 61 374 bng 20 250 50 0 empty empty empty 0 -10 0 12 #fcfcfc #000000 #000000;
#X connect 1 0 2 0;
#X connect 2 0 3 0;
#X connect 2 0 4 0;
#X connect 2 0 14 0;
#X connect 4 0 5 0;
#X connect 5 0 6 0;
#X connect 6 0 8 0;
#X connect 7 0 15 0;
#X connect 7 0 22 0;
#X connect 8 0 7 0;
#X connect 8 1 9 0;
#X connect 8 2 10 0;
#X connect 8 3 11 0;
#X connect 9 0 19 0;
#X connect 9 0 25 0;
#X connect 10 0 20 0;
#X connect 10 0 23 0;
#X connect 11 0 21 0;
#X connect 11 0 24 0;
