#N canvas 827 239 733 484 12;
#N canvas 0 50 450 250 (subpatch) 0;
#X text 0 0 plugdatainfo <?xml version="1.0" encoding="UTF-8"?> <plugdatainfo/>;
#X coords 0 1 100 -1 1 1 1;
#X restore 0 0 graph;
#X obj 39 48 netreceive -u -b 50000;
#X obj 39 77 oscparse;
#X listbox 133 131 30 0 0 0 - - - 0;
#X obj 39 131 list trim;
#X obj 39 160 route sonar;
#X obj 39 189 list split 2;
#X floatatom 39 360 5 0 0 0 - - - 12;
#X obj 39 224 route 1 2 3 4;
#X floatatom 55 325 5 0 0 0 - - - 12;
#X floatatom 71 294 5 0 0 0 - - - 12;
#X floatatom 87 266 5 0 0 0 - - - 12;
#N canvas 0 50 450 250 (subpatch) 0;
#X array sonar1 100 float 0;
#X coords 0 1 99 0 200 140 1;
#X restore 369 48 graph;
#N canvas 189 711 450 300 to_sonar1 0;
#N canvas 0 50 450 250 (subpatch) 0;
#X text 0 0 plugdatainfo <?xml version="1.0" encoding="UTF-8"?> <plugdatainfo/>;
#X coords 0 1 100 -1 1 1 1;
#X restore 0 0 graph;
#X obj 35 22 inlet;
#X obj 215 18 v i\$0;
#X obj 35 86 expr i\$0=i\$0+1 \; if (i\$0>size("sonar1") \, i\$0=0 \, i\$0=i\$0) \; sonar1[i\$0]=$f1;
#X connect 1 0 3 0;
#X restore 39 400 pd to_sonar1;
#X connect 1 0 2 0;
#X connect 2 0 3 0;
#X connect 2 0 4 0;
#X connect 4 0 5 0;
#X connect 5 0 6 0;
#X connect 6 0 8 0;
#X connect 7 0 13 0;
#X connect 8 0 7 0;
#X connect 8 1 9 0;
#X connect 8 2 10 0;
#X connect 8 3 11 0;
